<?xml version="1.0" encoding="UTF-8" standalone="no"?>
<!DOCTYPE svg PUBLIC "-//W3C//DTD SVG 1.1//EN" "http://www.w3.org/Graphics/SVG/1.1/DTD/svg11.dtd">
<svg width="100%" height="100%" viewBox="0 0 349 349" version="1.1" xmlns="http://www.w3.org/2000/svg" xmlns:xlink="http://www.w3.org/1999/xlink" xml:space="preserve" xmlns:serif="http://www.serif.com/" style="fill-rule:evenodd;clip-rule:evenodd;stroke-linecap:round;stroke-linejoin:round;stroke-miterlimit:5;">
    <g transform="matrix(1,0,0,1,-2443.66,-247.167)">
        <circle cx="2617.69" cy="421.194" r="157.781"/>
        <g transform="matrix(0.86174,0,0,0.86174,354.912,45.509)">
            <path d="M2545.89,436.207L2617.69,503.237L2705.75,386.883" style="fill:none;stroke:rgb(243,9,247);stroke-width:41.81px;"/>
        </g>
        <path d="M2617.69,247.167C2713.74,247.167 2791.71,325.146 2791.71,421.194C2791.71,517.242 2713.74,595.22 2617.69,595.22C2521.64,595.22 2443.66,517.242 2443.66,421.194C2443.66,325.146 2521.64,247.167 2617.69,247.167ZM2617.69,263.413C2530.61,263.413 2459.91,334.112 2459.91,421.194C2459.91,508.275 2530.61,578.975 2617.69,578.975C2704.77,578.975 2775.47,508.275 2775.47,421.194C2775.47,334.112 2704.77,263.413 2617.69,263.413Z" style="fill:rgb(243,9,247);"/>
    </g>
</svg>
