<?xml version="1.0" encoding="UTF-8" standalone="no"?>
<!DOCTYPE svg PUBLIC "-//W3C//DTD SVG 1.1//EN" "http://www.w3.org/Graphics/SVG/1.1/DTD/svg11.dtd">
<svg width="100%" height="100%" viewBox="0 0 304 297" version="1.1" xmlns="http://www.w3.org/2000/svg" xmlns:xlink="http://www.w3.org/1999/xlink" xml:space="preserve" xmlns:serif="http://www.serif.com/" style="fill-rule:evenodd;clip-rule:evenodd;stroke-linejoin:round;stroke-miterlimit:2;">
    <g transform="matrix(1,0,0,1,-1435.53,-993.177)">
        <g transform="matrix(6.17959,0,0,6.17959,1434.29,989.485)">
            <path d="M24.78,4.322L28.495,1.3C32.38,-1.859 49.358,6.364 49.358,11.481L24.78,31.471L0.201,11.481C0.201,6.364 17.181,-1.859 21.064,1.3L24.78,4.322ZM9.693,34.132L7.452,32.001C5.115,29.78 0.201,14.83 0.201,14.83L7.147,20.479L9.693,34.132ZM18.541,43.019L15.607,40.466C12.582,37.835 9.839,22.595 9.839,22.595L18.102,29.315L18.541,43.019ZM20.649,31.436L24.78,34.797L28.911,31.436C28.911,31.436 27.926,45.942 26.253,47.302L24.78,48.5L23.307,47.302C21.634,45.942 20.649,31.436 20.649,31.436ZM39.867,34.2L42.413,20.547L49.358,14.898C49.358,14.898 44.445,29.848 42.108,32.07L39.867,34.2ZM31.019,43.019L31.458,29.315L39.721,22.595C39.721,22.595 36.978,37.835 33.953,40.466L31.019,43.019Z" style="fill:rgb(243,9,247);"/>
        </g>
    </g>
</svg>
