<?xml version="1.0" encoding="UTF-8" standalone="no"?>
<!DOCTYPE svg PUBLIC "-//W3C//DTD SVG 1.1//EN" "http://www.w3.org/Graphics/SVG/1.1/DTD/svg11.dtd">
<svg width="100%" height="100%" viewBox="0 0 699 297" version="1.1" xmlns="http://www.w3.org/2000/svg" xmlns:xlink="http://www.w3.org/1999/xlink" xml:space="preserve" xmlns:serif="http://www.serif.com/" style="fill-rule:evenodd;clip-rule:evenodd;stroke-linejoin:round;stroke-miterlimit:2;">
    <g transform="matrix(1,0,0,1,-1435.53,-992.632)">
        <g transform="matrix(6.17959,0,0,6.17959,1434.29,989.485)">
            <path d="M24.78,4.322L28.495,1.3C32.38,-1.859 49.358,6.364 49.358,11.481L24.78,31.471L0.201,11.481C0.201,6.364 17.181,-1.859 21.064,1.3L24.78,4.322ZM9.693,34.132L7.452,32.001C5.115,29.78 0.201,14.83 0.201,14.83L7.147,20.479L9.693,34.132ZM18.541,43.019L15.607,40.466C12.582,37.835 9.839,22.595 9.839,22.595L18.102,29.315L18.541,43.019ZM20.649,31.436L24.78,34.797L28.911,31.436C28.911,31.436 27.926,45.942 26.253,47.302L24.78,48.5L23.307,47.302C21.634,45.942 20.649,31.436 20.649,31.436ZM39.867,34.2L42.413,20.547L49.358,14.898C49.358,14.898 44.445,29.848 42.108,32.07L39.867,34.2ZM31.019,43.019L31.458,29.315L39.721,22.595C39.721,22.595 36.978,37.835 33.953,40.466L31.019,43.019Z" style="fill:rgb(243,9,247);"/>
        </g>
        <g transform="matrix(5.58872,0,0,5.58872,1463.45,849.922)">
            <path d="M72.233,33.19C72.233,34.591 71.907,35.829 71.288,36.969C70.637,38.109 69.659,39.021 68.389,39.705C67.086,40.389 65.49,40.747 63.633,40.747L60.473,40.747L60.473,48.5L54.089,48.5L54.089,25.535L63.633,25.535C65.49,25.535 67.053,25.861 68.356,26.513C69.627,27.164 70.604,28.076 71.255,29.216C71.907,30.356 72.233,31.692 72.233,33.19ZM63.014,35.666C64.806,35.666 65.718,34.852 65.718,33.19C65.718,31.529 64.806,30.682 63.014,30.682L60.473,30.682L60.473,35.666L63.014,35.666ZM83.471,44.754L75.327,44.754L74.089,48.5L67.379,48.5L75.751,25.535L83.112,25.535L91.451,48.5L84.709,48.5L83.471,44.754ZM81.875,39.868L79.399,32.441L76.956,39.868L81.875,39.868ZM120.019,25.535L114.383,48.5L106.533,48.5L103.373,34.428L100.149,48.5L92.298,48.5L86.728,25.535L93.634,25.535L96.305,41.236L99.921,25.535L106.924,25.535L110.442,41.106L113.113,25.535L120.019,25.535Z" style="fill:rgb(243,9,247);"/>
        </g>
        <g transform="matrix(7.48188,0,0,7.29249,1754.7,1289.2)">
            <path d="M18.099,-13.877C18.099,-12.617 17.808,-11.47 17.228,-10.437C16.647,-9.404 15.771,-8.577 14.6,-7.957C13.429,-7.337 11.997,-7.027 10.304,-7.027L7.44,-7.027L7.44,0L1.653,0L1.653,-20.815L10.304,-20.815C11.977,-20.815 13.399,-20.52 14.571,-19.929C15.742,-19.339 16.623,-18.522 17.213,-17.479C17.804,-16.436 18.099,-15.235 18.099,-13.877ZM9.743,-11.633C11.377,-11.633 12.194,-12.381 12.194,-13.877C12.194,-15.392 11.377,-16.15 9.743,-16.15L7.44,-16.15L7.44,-11.633L9.743,-11.633ZM28.875,-3.395L21.493,-3.395L20.371,0L14.289,0L21.877,-20.815L28.55,-20.815L36.108,0L29.997,0L28.875,-3.395ZM27.428,-7.824L25.184,-14.556L22.97,-7.824L27.428,-7.824ZM42.899,-4.429L49.365,-4.429L49.365,0L37.112,0L37.112,-20.815L42.899,-20.815L42.899,-4.429Z" style="fill:white;"/>
        </g>
    </g>
</svg>
